<svg width="57" height="22" viewBox="0 0 57 22" fill="none" xmlns="http://www.w3.org/2000/svg">
<path d="M-7.28667e-06 21L7.43999 -1.43051e-06H11.28L18.69 21H15.51L9.38999 3.03H9.32999L3.14999 21H-7.28667e-06ZM3.47999 15.36L4.31999 12.96H14.19L15.03 15.36H3.47999ZM19.474 21V6.12H22.144L22.414 9.12H22.444C22.844 8.3 23.294 7.65 23.794 7.17C24.314 6.67 24.914 6.31 25.594 6.09C26.294 5.87 27.084 5.76 27.964 5.76V8.91H27.154C26.474 8.91 25.844 9 25.264 9.18C24.684 9.34 24.184 9.61 23.764 9.99C23.364 10.35 23.044 10.84 22.804 11.46C22.584 12.06 22.474 12.81 22.474 13.71V21H19.474ZM35.1872 21.36C33.7472 21.36 32.4672 21.04 31.3472 20.4C30.2272 19.74 29.3472 18.83 28.7072 17.67C28.0672 16.51 27.7472 15.15 27.7472 13.59C27.7472 12.03 28.0572 10.67 28.6772 9.51C29.3172 8.33 30.1972 7.41 31.3172 6.75C32.4372 6.09 33.7472 5.76 35.2472 5.76C36.7072 5.76 37.9672 6.09 39.0272 6.75C40.1072 7.39 40.9372 8.24 41.5172 9.3C42.0972 10.36 42.3872 11.54 42.3872 12.84C42.3872 13.04 42.3872 13.26 42.3872 13.5C42.3872 13.74 42.3772 13.99 42.3572 14.25H29.9372V12.15H39.3872C39.3272 10.91 38.9072 9.94 38.1272 9.24C37.3472 8.54 36.3772 8.19 35.2172 8.19C34.3972 8.19 33.6372 8.37 32.9372 8.73C32.2572 9.09 31.7072 9.62 31.2872 10.32C30.8872 11.02 30.6872 11.91 30.6872 12.99V13.83C30.6872 14.93 30.8872 15.86 31.2872 16.62C31.7072 17.36 32.2572 17.92 32.9372 18.3C33.6372 18.68 34.3872 18.87 35.1872 18.87C36.1272 18.87 36.9172 18.66 37.5572 18.24C38.1972 17.8 38.6672 17.21 38.9672 16.47H41.9672C41.7072 17.41 41.2672 18.25 40.6472 18.99C40.0272 19.71 39.2572 20.29 38.3372 20.73C37.4372 21.15 36.3872 21.36 35.1872 21.36ZM48.6129 21.36C47.3929 21.36 46.3729 21.16 45.5529 20.76C44.7529 20.34 44.1529 19.78 43.7529 19.08C43.3729 18.38 43.1829 17.62 43.1829 16.8C43.1829 15.82 43.4329 14.98 43.9329 14.28C44.4529 13.58 45.1929 13.04 46.1529 12.66C47.1129 12.28 48.2729 12.09 49.6329 12.09H53.5929C53.5929 11.21 53.4529 10.49 53.1729 9.93C52.8929 9.35 52.4929 8.92 51.9729 8.64C51.4729 8.34 50.8429 8.19 50.0829 8.19C49.1829 8.19 48.3929 8.42 47.7129 8.88C47.0529 9.32 46.6429 9.99 46.4829 10.89H43.4829C43.6029 9.79 43.9629 8.87 44.5629 8.13C45.1829 7.37 45.9729 6.79 46.9329 6.39C47.9129 5.97 48.9729 5.76 50.1129 5.76C51.5129 5.76 52.6929 6.01 53.6529 6.51C54.6129 7.01 55.3429 7.72 55.8429 8.64C56.3429 9.54 56.5929 10.61 56.5929 11.85V21H54.0129L53.7429 18.48H53.7129C53.4729 18.9 53.1829 19.29 52.8429 19.65C52.5229 20.01 52.1529 20.32 51.7329 20.58C51.3129 20.82 50.8429 21.01 50.3229 21.15C49.8029 21.29 49.2329 21.36 48.6129 21.36ZM49.2429 18.93C49.9229 18.93 50.5229 18.8 51.0429 18.54C51.5629 18.28 52.0029 17.93 52.3629 17.49C52.7429 17.03 53.0229 16.52 53.2029 15.96C53.4029 15.4 53.5129 14.82 53.5329 14.22H49.9329C49.0729 14.22 48.3729 14.32 47.8329 14.52C47.2929 14.72 46.9029 15 46.6629 15.36C46.4429 15.72 46.3329 16.14 46.3329 16.62C46.3329 17.08 46.4429 17.49 46.6629 17.85C46.9029 18.19 47.2329 18.46 47.6529 18.66C48.0929 18.84 48.6229 18.93 49.2429 18.93Z" fill="black"/>
<a href="https://www.figma.com/site/dcj50HJczyL39nd2u9Sshb/Modern-Product-Launch--Community---Copy-?node-id=0-3">
<rect fill="black" fill-opacity="0" y="-1.53" width="58.6329" height="39.06"/>
</a>
</svg>
